<svg width="300" height="300" viewBox="0 0 300 300" fill="none" xmlns="http://www.w3.org/2000/svg">
<path d="M152.394 237.5C131.117 176.862 145.479 95.4788 152.394 32.7128C85.9042 77.9255 47.0744 153.457 55.0531 230.585C77.3936 232.181 114.096 235.372 152.394 237.5Z" fill="#B3334D" stroke="#B3334D" stroke-width="2.92421" stroke-linejoin="round"/>
<path d="M152.394 237.5C131.117 176.862 145.479 95.4788 152.394 32.7128C85.9042 77.9255 47.0744 153.457 55.0531 230.585C77.3936 232.181 114.096 235.372 152.394 237.5Z" fill="#B3334D" stroke="#B3334D" stroke-width="2.92421" stroke-linejoin="round"/>
<path d="M151.951 27.286C163.435 26.1658 183.865 22.828 195.19 20.7368C196.35 20.5227 196.326 18.9389 195.161 18.7578C183.852 16.9999 162.158 13.7508 151.969 12.6252C151.342 12.5559 150.798 13.0483 150.798 13.6789V26.2314C150.798 26.8561 151.33 27.3466 151.951 27.286Z" fill="#E76E29"/>
<path d="M160.904 238.032C163.032 223.67 168.351 139.628 158.776 69.9468C182.713 111.968 233.776 211.436 251.862 244.947C234.84 244.947 183.247 241.101 160.904 238.032Z" fill="#B3334D" stroke="#B3334D" stroke-width="2.92421" stroke-linejoin="round"/>
<path d="M94.5559 287.302C84.971 282.294 27.7217 242.548 15.7378 230.922C14.5979 229.817 15.3045 228.606 16.8648 228.902C75.0428 239.915 252.036 251.308 282.08 253.188C283.869 253.3 284.618 255.432 283.404 256.751L256.212 286.288C255.812 286.722 255.253 286.97 254.663 286.974C245.497 287.032 169.494 287.498 95.437 287.5C95.1143 287.5 94.8419 287.452 94.5559 287.302Z" fill="url(#paint0_linear_18417_1609)"/>
<defs>
<linearGradient id="paint0_linear_18417_1609" x1="156.952" y1="257.532" x2="156.952" y2="288.303" gradientUnits="userSpaceOnUse">
<stop stop-color="#C8680F"/>
<stop offset="1" stop-color="#7C410B"/>
</linearGradient>
</defs>
</svg>
