<svg width="223" height="227" viewBox="0 0 223 227" fill="none" xmlns="http://www.w3.org/2000/svg">
<path d="M144.501 226.5C144.501 226.5 144.502 9.00017 145 6.49999C145 -1.99997 163 -1.5 163 6.49998C163 10.5003 163.001 140.389 163.001 226.5H144.501Z" fill="url(#paint0_linear_18422_2614)"/>
<path d="M61.9719 38H217.5C220.261 38 222.5 40.2386 222.5 43V113C222.5 115.761 220.261 118 217.5 118H62.0346C61.0346 118 60.0575 117.7 59.2296 117.139L6.26155 81.2434C3.29409 79.2324 3.34456 74.844 6.35749 72.9018L59.2629 38.7975C60.0705 38.2769 61.011 38 61.9719 38Z" fill="#B3334D"/>
<defs>
<linearGradient id="paint0_linear_18422_2614" x1="153.75" y1="6" x2="153.75" y2="226.5" gradientUnits="userSpaceOnUse">
<stop stop-color="#C8690F"/>
<stop offset="1" stop-color="#3E2105"/>
</linearGradient>
</defs>
</svg>
