<svg width="60" height="60" viewBox="0 0 60 60" fill="none" xmlns="http://www.w3.org/2000/svg">
<path d="M26.8121 40.1848C27.031 40.3724 27.7187 40.9663 28.3596 41.5134C36.2843 48.3752 42.9273 51.1106 47.1788 49.2662C47.7572 49.0005 47.8822 48.9067 49.9924 46.8591C51.3679 45.5148 52.3213 44.5301 52.5558 44.2019C53.6187 42.6701 53.5874 40.6068 52.5089 39.1219C52.2119 38.6999 51.6336 38.2153 48.8513 36.0583C47.0382 34.6516 45.3501 33.4011 45.1156 33.2917C44.0371 32.7759 42.8804 32.7134 41.755 33.1198C41.2548 33.3073 40.8328 33.573 40.02 34.1983C39.4417 34.6516 38.7852 35.0892 38.6133 35.1674C38.0818 35.3862 37.3003 35.3862 36.7063 35.1674L36.1749 34.9798L30.5791 29.384C24.4988 23.3037 24.7489 23.5851 24.6082 22.6004C24.4988 21.8032 24.7333 21.2874 25.718 19.99C26.3276 19.1929 26.6871 18.6145 26.8278 18.2238C27.2029 17.1609 27.0935 15.6447 26.5777 14.66C26.4839 14.5037 25.2803 12.8937 23.858 11.0962C21.6071 8.18892 21.2476 7.76689 20.7787 7.42301C19.4345 6.48518 17.7933 6.3445 16.3553 7.06351C15.8551 7.3136 15.5894 7.54806 13.3698 9.76761C10.7439 12.3936 10.5563 12.6436 10.1655 13.8159C9.89981 14.6131 9.85292 16.3168 10.0717 17.411C10.6657 20.5058 12.6664 24.2572 16.0583 28.6807C18.2153 31.4942 19.2626 32.6352 22.9045 36.3397C24.8427 38.2153 26.5933 39.966 26.8121 40.1848Z" fill="white"/>
</svg>
