<svg width="60" height="60" viewBox="0 0 60 60" fill="none" xmlns="http://www.w3.org/2000/svg">
<path d="M25.0526 20.5442C24.7652 20.5663 23.8589 20.6326 23.0189 20.6989C12.5632 21.4505 5.9317 24.2136 4.22961 28.5241C4.00856 29.121 3.98646 29.2757 3.94225 32.2157C3.92014 34.1388 3.94225 35.5093 4.00856 35.9072C4.34014 37.7419 5.82118 39.1788 7.63379 39.4661C8.14221 39.5545 8.89378 39.4882 12.3864 39.0461C14.6632 38.7588 16.7411 38.4493 16.9842 38.3609C18.1116 37.963 18.9737 37.1893 19.4821 36.1062C19.7031 35.6198 19.8137 35.1335 19.9463 34.1167C20.0347 33.3872 20.1895 32.6136 20.2558 32.4367C20.4768 31.9062 21.0294 31.3536 21.6042 31.0883L22.1126 30.8452H30.0262C38.6251 30.8452 38.2493 30.8231 39.0451 31.4199C39.6861 31.9062 39.885 32.4367 40.1061 34.0504C40.2387 35.0451 40.3935 35.7083 40.5703 36.0841C41.0566 37.1009 42.2061 38.0956 43.2671 38.4272C43.444 38.4714 45.4334 38.7588 47.7102 39.024C51.3576 39.4882 51.9102 39.5324 52.4849 39.444C54.0986 39.1567 55.3586 38.0956 55.867 36.5704C56.0438 36.0398 56.0659 35.6862 56.0659 32.5472C56.0659 28.8336 56.0217 28.5241 55.4691 27.4189C55.0933 26.6673 53.9217 25.4294 52.9933 24.8105C50.3849 23.0421 46.3176 21.8042 40.7914 21.0747C37.2767 20.6105 35.7293 20.5442 30.5346 20.5C27.8378 20.5442 25.362 20.5442 25.0526 20.5442Z" fill="white"/>
</svg>
