<svg width="400" height="400" viewBox="0 0 400 400" fill="none" xmlns="http://www.w3.org/2000/svg">
<path d="M88.022 362.071L75.0217 243.296L238.117 235.614L240.48 362.071H88.022Z" fill="url(#paint0_linear_18429_1541)"/>
<path d="M258.478 165.263L102.308 161.78C102.308 161.78 111.076 121.141 131.917 121.141C185.328 121.141 219 118.238 296.214 124.043C374.009 182.68 309.567 248.863 309.567 248.863L258.478 165.263Z" fill="url(#paint1_linear_18429_1541)"/>
<path d="M270.669 226.802L95.9219 230.285L105.791 208.224L148.172 204.16L168.491 189.646L192.875 198.355L229.45 189.646L241.061 204.16H257.316L270.669 226.802Z" fill="#B3334D"/>
<path d="M330.831 138.798C328.578 103.393 313.598 90.5053 283.696 90.0476C282.774 90.0334 282.016 89.2887 282.016 88.3673C282.016 86.9061 282.016 85.1591 282.016 83.4943L282.016 81.9694C282.016 81.0672 282.746 80.3303 283.647 80.2889C314.797 78.8587 328.91 63.0753 329.455 35.5413C329.473 34.6202 330.218 33.8646 331.139 33.8646L336.548 33.8648C337.458 33.8648 338.197 34.5995 338.239 35.5084C339.447 61.7444 358.442 80.1539 388.324 80.8166C389.245 80.837 390 81.5826 390 82.5039V87.9095C390 88.8201 389.263 89.5617 388.353 89.5917C360.158 90.5182 341.171 103.41 339.695 138.754C339.658 139.658 338.919 140.395 338.014 140.395H332.507C331.62 140.395 330.888 139.683 330.831 138.798Z" fill="#FF9E21"/>
<path d="M127.164 101.459C98.9929 103.252 88.7384 115.172 88.3742 138.965C88.3629 139.698 87.7703 140.301 87.0372 140.301C85.8746 140.301 84.4845 140.301 83.1598 140.301L81.9464 140.301C81.2286 140.301 80.6422 139.722 80.6094 139.005C79.4724 114.144 66.9134 100.774 45.0037 100.256C44.2708 100.239 43.6697 99.6468 43.6697 98.9138L43.6697 93.9977C43.6697 93.2737 44.2543 92.6849 44.9777 92.6554C65.852 91.8045 80.4999 79.3903 81.029 55.715C81.0454 54.9821 81.6386 54.3791 82.3717 54.3791H86.6729C87.3975 54.3791 87.9876 54.9656 88.0114 55.6898C88.7487 78.1242 99.0063 93.2322 127.13 94.4062C127.849 94.4362 128.436 95.024 128.436 95.7436V100.126C128.436 100.832 127.869 101.414 127.164 101.459Z" fill="#FF9E21"/>
<path d="M48.9589 143.109C50.4595 166.59 60.3585 171.194 80.2882 171.354C80.9025 171.359 81.4081 171.855 81.4081 172.47L81.4082 176.735C81.4082 177.336 80.9213 177.828 80.3205 177.855C59.5541 178.809 50.1457 189.331 49.7825 207.687C49.7704 208.301 49.2737 208.805 48.6595 208.805L45.0538 208.805C44.4472 208.805 43.9539 208.314 43.9266 207.708C43.1424 190.283 31.0176 179.592 11.1178 179.207C10.5037 179.195 9.9998 178.698 9.9998 178.084V173.904C9.9998 173.297 10.4916 172.803 11.0984 172.786C29.876 172.28 42.0834 166.608 43.0547 143.137C43.0796 142.535 43.5721 142.041 44.1751 142.041H47.8412C48.433 142.041 48.9211 142.518 48.9589 143.109Z" fill="#FF9E21"/>
<path d="M314.212 241.896C314.212 239.11 264.284 237.252 238.159 235.51V362.071L311.89 366.135C312.664 328.786 314.212 244.683 314.212 241.896Z" fill="url(#paint2_linear_18429_1541)"/>
<defs>
<linearGradient id="paint0_linear_18429_1541" x1="74.4412" y1="361.491" x2="240.48" y2="314.466" gradientUnits="userSpaceOnUse">
<stop stop-color="#633408"/>
<stop offset="1" stop-color="#C96910"/>
</linearGradient>
<linearGradient id="paint1_linear_18429_1541" x1="218.467" y1="120.415" x2="323.5" y2="270.924" gradientUnits="userSpaceOnUse">
<stop stop-color="#C96910"/>
<stop offset="1" stop-color="#633408"/>
</linearGradient>
<linearGradient id="paint2_linear_18429_1541" x1="313.631" y1="280.213" x2="228.87" y2="279.052" gradientUnits="userSpaceOnUse">
<stop stop-color="#633408"/>
<stop offset="1" stop-color="#C96910"/>
</linearGradient>
</defs>
</svg>
